<svg xmlns="http://www.w3.org/2000/svg" width="70" height="70" viewBox="0 0 70 70" style="width: 100%; height: 100%;"><desc>Made with illustrio</desc>
  
<g class="base"><g fill="none" fill-rule="evenodd" stroke="none" class="main-fill">
    
    <path fill="none" d="M33.3666667,29.1666667 C32.5658667,29.1666667 31.8201333,29.3958 31.1822,29.7859333 L24.4622,21.8432667 C25.3512,20.8856667 25.9,19.6074667 25.9,18.2 C25.9,17.304 25.6764667,16.4598 25.2868,15.7168667 L31.3931333,11.6461333 C32.1631333,12.5150667 33.2836,13.0666667 34.5333333,13.0666667 C36.8494,13.0666667 38.7333333,11.1822667 38.7333333,8.86666667 C38.7333333,6.55106667 36.8494,4.66666667 34.5333333,4.66666667 C32.2172667,4.66666667 30.3333333,6.55106667 30.3333333,8.86666667 C30.3333333,9.4304 30.4467333,9.96753333 30.6492667,10.4594 L24.4776,14.5730667 C23.4962,13.5067333 22.0938667,12.8333333 20.5333333,12.8333333 C19.6373333,12.8333333 18.7936,13.0568667 18.0502,13.4465333 C17.2526667,12.2504667 14.8596,8.6604 13.9794667,7.3402 C14.8484,6.5702 15.4,5.44973333 15.4,4.2 C15.4,1.8844 13.5156,0 11.2,0 C8.8844,0 7,1.8844 7,4.2 C7,6.5156 8.8844,8.4 11.2,8.4 C11.7637333,8.4 12.3008667,8.2866 12.7927333,8.08406667 L14.8171333,11.1211333 C15.9282667,12.7880667 16.548,13.7176667 16.9232,14.2403333 C16.0099333,15.0738 15.3864667,16.2143333 15.2175333,17.4995333 L8.33653333,17.4995333 C8.00193333,15.5166667 6.27666667,14 4.2,14 C1.8844,14 0,15.8844 0,18.2 C0,20.5160667 1.8844,22.4 4.2,22.4 C6.27666667,22.4 8.00193333,20.8833333 8.33653333,18.9 L15.2175333,18.9 C15.4424667,20.6145333 16.4756667,22.0761333 17.9246667,22.8858 L16.4803333,28.0499333 C16.2796667,28.0205333 16.0757333,28 15.8666667,28 C13.5510667,28 11.6666667,29.8839333 11.6666667,32.2 C11.6666667,34.5160667 13.5510667,36.4 15.8666667,36.4 C18.1822667,36.4 20.0666667,34.5160667 20.0666667,32.2 C20.0666667,30.5867333 19.1510667,29.1848667 17.8131333,28.4816 L19.2341333,23.401 C19.6508667,23.5050667 20.0848667,23.5666667 20.5333333,23.5666667 C21.5814667,23.5666667 22.5577333,23.2600667 23.3846667,22.7383333 L30.1233333,30.7015333 C29.526,31.4272 29.1666667,32.3558667 29.1666667,33.3666667 C29.1666667,35.6827333 31.0506,37.5666667 33.3666667,37.5666667 C35.6827333,37.5666667 37.5666667,35.6827333 37.5666667,33.3666667 C37.5666667,31.0506 35.6827333,29.1666667 33.3666667,29.1666667 L33.3666667,29.1666667 Z M34.5333333,7.23333333 C35.434,7.23333333 36.1666667,7.966 36.1666667,8.86666667 C36.1666667,9.12426667 35.9580667,9.33333333 35.7,9.33333333 C35.4419333,9.33333333 35.2333333,9.12426667 35.2333333,8.86666667 C35.2333333,8.48073333 34.9192667,8.16666667 34.5333333,8.16666667 C34.2752667,8.16666667 34.0666667,7.9576 34.0666667,7.7 C34.0666667,7.4424 34.2752667,7.23333333 34.5333333,7.23333333 L34.5333333,7.23333333 Z M11.9,4.2 C11.9,3.81406667 11.5859333,3.5 11.2,3.5 C10.9424,3.5 10.7333333,3.29093333 10.7333333,3.03333333 C10.7333333,2.77573333 10.9424,2.56666667 11.2,2.56666667 C12.1006667,2.56666667 12.8333333,3.29933333 12.8333333,4.2 C12.8333333,4.4576 12.6242667,4.66666667 12.3666667,4.66666667 C12.1090667,4.66666667 11.9,4.4576 11.9,4.2 L11.9,4.2 Z M5.36666667,18.6666667 C5.10906667,18.6666667 4.9,18.4576 4.9,18.2 C4.9,17.8140667 4.58593333,17.5 4.2,17.5 C3.9424,17.5 3.73333333,17.2909333 3.73333333,17.0333333 C3.73333333,16.7757333 3.9424,16.5666667 4.2,16.5666667 C5.10066667,16.5666667 5.83333333,17.2993333 5.83333333,18.2 C5.83333333,18.4576 5.62426667,18.6666667 5.36666667,18.6666667 L5.36666667,18.6666667 Z M17.0333333,32.6666667 C16.7757333,32.6666667 16.5666667,32.4580667 16.5666667,32.2 C16.5666667,31.8140667 16.2526,31.5 15.8666667,31.5 C15.6090667,31.5 15.4,31.2914 15.4,31.0333333 C15.4,30.7752667 15.6090667,30.5666667 15.8666667,30.5666667 C16.7673333,30.5666667 17.5,31.2993333 17.5,32.2 C17.5,32.4580667 17.2909333,32.6666667 17.0333333,32.6666667 L17.0333333,32.6666667 Z M22.4,18.2 C22.4,17.1705333 21.5628,16.3333333 20.5333333,16.3333333 C20.2757333,16.3333333 20.0666667,16.1242667 20.0666667,15.8666667 C20.0666667,15.6090667 20.2757333,15.4 20.5333333,15.4 C22.0775333,15.4 23.3333333,16.6558 23.3333333,18.2 C23.3333333,18.4576 23.1247333,18.6666667 22.8666667,18.6666667 C22.6086,18.6666667 22.4,18.4576 22.4,18.2 L22.4,18.2 Z M34.5333333,33.8333333 C34.2752667,33.8333333 34.0666667,33.6247333 34.0666667,33.3666667 C34.0666667,32.9807333 33.7526,32.6666667 33.3666667,32.6666667 C33.1086,32.6666667 32.9,32.4580667 32.9,32.2 C32.9,31.9419333 33.1086,31.7333333 33.3666667,31.7333333 C34.2673333,31.7333333 35,32.466 35,33.3666667 C35,33.6247333 34.7914,33.8333333 34.5333333,33.8333333 L34.5333333,33.8333333 Z" transform="translate(15.4 15.867)" stroke="none" class="main-fill"></path>
  </g></g><style>
          .main-fill {fill: #64729C;}
          .main-stroke {stroke: #64729C;}
          .secondary-fill {fill: #eeeeee;}
          .secondary-stroke {stroke: #eeeeee;}

          .main-fill--darken {fill: #46506e;}
          .main-stroke--darken {stroke: #46506e;}
          .secondary-fill--darken {fill: #c8c8c8;}
          .secondary-stroke--darken {stroke: #c8c8c8;}

          .main-fill--darkener {fill: #32394e;}
          .main-stroke--darkener {stroke: #32394e;}
          .secondary-fill--darkener {fill: #aeaeae;}
          .secondary-stroke--darkener {stroke: #aeaeae;}
        </style></svg>