<svg xmlns="http://www.w3.org/2000/svg" width="70" height="70" viewBox="0 0 70 70" style="width: 100%; height: 100%;"><desc>Made with illustrio</desc>
  
<g class="base"><g fill="none" fill-rule="evenodd" stroke="none" class="main-fill">
    
    
  </g><g fill="none" transform="translate(20.364 17.818)" stroke="none" class="main-fill">
      <path d="M7.79227273 26.3206364L9.56454545 21.6599091C8.30518182 21.2265455 7.04836364 20.9058182 5.83036364 20.7034545 5.82590909 23.338 6.49536364 25.424 7.79227273 26.3206364L7.79227273 26.3206364zM5.88572727 19.4243636C7.23545455 19.6388182 8.62781818 19.9900909 10.017 20.4711818L11.8338182 15.6927273 7.08972727 13.8892727C6.41772727 15.8040909 6.02 17.6979091 5.88572727 19.4243636L5.88572727 19.4243636zM9.32909091 26.7991818C10.8519091 26.7991818 12.6012727 25.6740909 14.217 23.8343636 13.1549091 23.1852727 11.9897273 22.6010909 10.7570909 22.1040909L8.98354545 26.7686364C9.09745455 26.7832727 9.21136364 26.7991818 9.32909091 26.7991818L9.32909091 26.7991818zM24.2289091 19.0444545C25.0606364 16.4620909 24.9906364 13.783 24.1601818 11.3718182 23.6078182 11.438 23.0376364 11.4831818 22.4394545 11.4831818 21.875 11.4831818 21.2908182 11.4507273 20.6958182 11.3934545 20.5443636 13.251 20.1071818 15.2332727 19.4090909 17.2117273L24.2289091 19.0444545 24.2289091 19.0444545zM17.5152727 4.32918182L15.7442727 8.98672727C17.0049091 9.42136364 18.2642727 9.74272727 19.4835455 9.94509091 19.4835455 9.47609091 19.4695455 9.01472727 19.425 8.57436364 19.2175455 6.51127273 18.5455455 5.03936364 17.5152727 4.32918182L17.5152727 4.32918182zM7.54027273 12.6986364L12.2862727 14.5027273 14.1005455 9.73127273C12.7393636 9.18463636 11.4532727 8.53236364 10.283 7.80563636 9.24445455 9.18590909 8.29690909 10.8557273 7.54027273 12.6986364L7.54027273 12.6986364zM11.0918182 6.81290909C12.1539091 7.462 13.3190909 8.04618182 14.5517273 8.54318182L16.3252727 3.87927273C16.2107273 3.86527273 16.0974545 3.84936364 15.9790909 3.84936364 14.4575455 3.84872727 12.7075455 4.97318182 11.0918182 6.81290909L11.0918182 6.81290909zM11.2095455 20.9147273C12.5700909 21.4613636 13.8568182 22.1136364 15.0264545 22.841 16.0643636 21.4613636 17.0119091 19.7921818 17.7691818 17.9486364L13.0238182 16.1445455 11.2095455 20.9147273 11.2095455 20.9147273zM19.4326364 11.2311818C18.0797273 11.0167273 16.6822727 10.6629091 15.2899091 10.1811818L13.475 14.9551818 18.2190909 16.7586364C18.8840909 14.8699091 19.2951818 12.9856364 19.4326364 11.2311818L19.4326364 11.2311818zM17.5687273 26.4428182C16.9234545 25.7848182 16.1617273 25.1490909 15.3115455 24.5515455 14.1730909 25.8751818 12.9525455 26.8691818 11.7351818 27.4590909 12.04 27.482 12.3448182 27.5004545 12.6515455 27.5004545 14.3767273 27.5010909 16.0446364 27.1211818 17.5687273 26.4428182L17.5687273 26.4428182zM1.64754545 20.4921818C2.47163636 22.2472727 3.70936364 23.8063636 5.292 25.011 4.78290909 23.7834545 4.52454545 22.2574545 4.54363636 20.5316364 3.52609091 20.4298182 2.54990909 20.4132727 1.64754545 20.4921818L1.64754545 20.4921818zM18.7498182 25.8459091C20.9420909 24.5712727 22.7277273 22.6227273 23.7840909 20.237L18.9579091 18.4017273C18.1618182 20.3553636 17.185 22.1028182 16.1044545 23.5562727 17.1175455 24.2740909 18.0103636 25.0453636 18.7498182 25.8459091L18.7498182 25.8459091zM4.60090909 19.2608182C4.75109091 17.4446364 5.18381818 15.4649091 5.90036364 13.4374545L1.07927273 11.6040909C.248818182 14.1851818.317545455 16.8636364 1.14736364 19.2735455 2.21581818 19.1469091 3.37972727 19.1430909 4.60090909 19.2608182L4.60090909 19.2608182zM23.6612727 10.1557273C22.8384545 8.40254545 21.6026364 6.84472727 20.0225455 5.64072727 20.3534545 6.44190909 20.5844545 7.37736364 20.692 8.44709091 20.7460909 8.98227273 20.7600909 9.54354545 20.755 10.1156364 21.7757273 10.2174545 22.7557273 10.2346364 23.6612727 10.1557273L23.6612727 10.1557273zM13.573 3.18881818C13.2681818 3.16527273 12.9627273 3.14681818 12.656 3.14681818 10.9314545 3.14681818 9.26354545 3.52672727 7.73945455 4.20509091 8.38409091 4.86309091 9.14645455 5.49818182 9.99663636 6.09572727 11.1350909 4.77209091 12.3556364 3.77872727 13.573 3.18881818L13.573 3.18881818zM9.20436364 7.091C8.19063636 6.37318182 7.29781818 5.60190909 6.55836364 4.80136364 4.36545455 6.076 2.57981818 8.02454545 1.52409091 10.4115455L6.35027273 12.2468182C7.147 10.2919091 8.12381818 8.54445455 9.20436364 7.091L9.20436364 7.091z" fill="none" stroke="none" class="main-fill"></path>
      <path d="M18.3088182,0.453090909 C17.9798182,0.329 17.6126364,0.492545455 17.4879091,0.821545455 C17.3631818,1.14990909 17.5273636,1.51772727 17.8563636,1.64245455 C25.3991818,4.51118182 29.2033636,12.9818182 26.3359091,20.5252727 C23.4671818,28.0687273 14.9978182,31.8716364 7.45309091,29.0048182 C7.12472727,28.8781818 6.75754545,29.0442727 6.63218182,29.3732727 C6.50745455,29.7022727 6.67227273,30.0694545 7.00063636,30.1941818 C8.67618182,30.8311818 10.3924545,31.15 12.0915455,31.2091818 L12.0915455,33.0909091 L7.637,33.0909091 C7.28572727,33.0909091 7.00063636,33.3753636 7.00063636,33.7272727 C7.00063636,34.0791818 7.28572727,34.3636364 7.637,34.3636364 L17.8188182,34.3636364 C18.1707273,34.3636364 18.4551818,34.0791818 18.4551818,33.7272727 C18.4551818,33.3753636 18.1707273,33.0909091 17.8188182,33.0909091 L13.3642727,33.0909091 L13.3642727,31.206 C19.5064545,30.9228182 25.2044545,27.0823636 27.5259091,20.9777273 C30.6421818,12.7781818 26.5077273,3.57063636 18.3088182,0.453090909 L18.3088182,0.453090909 Z" fill="none" stroke="none" class="main-fill"></path>
    </g></g><style>
          .main-fill {fill: #64729C;}
          .main-stroke {stroke: #64729C;}
          .secondary-fill {fill: #eeeeee;}
          .secondary-stroke {stroke: #eeeeee;}

          .main-fill--darken {fill: #46506e;}
          .main-stroke--darken {stroke: #46506e;}
          .secondary-fill--darken {fill: #c8c8c8;}
          .secondary-stroke--darken {stroke: #c8c8c8;}

          .main-fill--darkener {fill: #32394e;}
          .main-stroke--darkener {stroke: #32394e;}
          .secondary-fill--darkener {fill: #aeaeae;}
          .secondary-stroke--darkener {stroke: #aeaeae;}
        </style></svg>