<svg xmlns="http://www.w3.org/2000/svg" width="70" height="70" viewBox="0 0 70 70" style="width: 100%; height: 100%;"><desc>Made with illustrio</desc>
  
<g class="base"><g fill="none" fill-rule="evenodd" stroke="none" class="main-fill">
    
    
  </g><g fill="none" transform="translate(17.818 21.636)" stroke="none" class="main-fill">
      <path d="M3.81818182,17.8181818 L30.5454545,17.8181818 L30.5454545,3.81818182 L3.81818182,3.81818182 L3.81818182,17.8181818 L3.81818182,17.8181818 Z M20.5500909,9.99536364 C20.3012727,9.74654545 20.3012727,9.34436364 20.5500909,9.09554545 C20.7989091,8.84672727 21.2010909,8.84672727 21.4499091,9.09554545 L22.7226364,10.3682727 C22.9714545,10.6170909 22.9714545,11.0192727 22.7226364,11.2680909 L21.4499091,12.5408182 C21.3258182,12.6649091 21.1629091,12.7272727 21,12.7272727 C20.8370909,12.7272727 20.6741818,12.6649091 20.5500909,12.5408182 C20.3012727,12.292 20.3012727,11.8898182 20.5500909,11.641 L21.3729091,10.8181818 L20.5500909,9.99536364 L20.5500909,9.99536364 Z M15.3395455,13.0791818 L17.885,7.98827273 C18.0428182,7.67390909 18.4246364,7.54663636 18.739,7.70381818 C19.0533636,7.861 19.1806364,8.24345455 19.0234545,8.55781818 L16.478,13.6487273 C16.3666364,13.8714545 16.142,14 15.9084545,14 C15.813,14 15.7156364,13.9783636 15.6246364,13.9331818 C15.3102727,13.7753636 15.1823636,13.3935455 15.3395455,13.0791818 L15.3395455,13.0791818 Z M11.641,10.3682727 L12.9137273,9.09554545 C13.1625455,8.84672727 13.5647273,8.84672727 13.8135455,9.09554545 C14.0623636,9.34436364 14.0623636,9.74654545 13.8135455,9.99536364 L12.9907273,10.8181818 L13.8135455,11.641 C14.0623636,11.8898182 14.0623636,12.292 13.8135455,12.5408182 C13.6894545,12.6649091 13.5265455,12.7272727 13.3636364,12.7272727 C13.2007273,12.7272727 13.0378182,12.6649091 12.9137273,12.5408182 L11.641,11.2680909 C11.3921818,11.0192727 11.3921818,10.6170909 11.641,10.3682727 L11.641,10.3682727 Z" fill="none" stroke="none" class="main-fill"></path>
      <path d="M33.7272727,0 L0.636363636,0 C0.285090909,0 0,0.285090909 0,0.636363636 L0,21 C0,21.3519091 0.285090909,21.6363636 0.636363636,21.6363636 L16.5454545,21.6363636 L16.5454545,25.4545455 L12.0909091,25.4545455 C11.7396364,25.4545455 11.4545455,25.739 11.4545455,26.0909091 C11.4545455,26.4428182 11.7396364,26.7272727 12.0909091,26.7272727 L22.2727273,26.7272727 C22.6246364,26.7272727 22.9090909,26.4428182 22.9090909,26.0909091 C22.9090909,25.739 22.6246364,25.4545455 22.2727273,25.4545455 L17.8181818,25.4545455 L17.8181818,21.6363636 L33.7272727,21.6363636 C34.0791818,21.6363636 34.3636364,21.3519091 34.3636364,21 L34.3636364,0.636363636 C34.3636364,0.285090909 34.0791818,0 33.7272727,0 L33.7272727,0 Z M31.8181818,18.4545455 C31.8181818,18.8064545 31.5337273,19.0909091 31.1818182,19.0909091 L3.18181818,19.0909091 C2.83054545,19.0909091 2.54545455,18.8064545 2.54545455,18.4545455 L2.54545455,3.18181818 C2.54545455,2.83054545 2.83054545,2.54545455 3.18181818,2.54545455 L31.1818182,2.54545455 C31.5337273,2.54545455 31.8181818,2.83054545 31.8181818,3.18181818 L31.8181818,18.4545455 L31.8181818,18.4545455 Z" fill="none" stroke="none" class="main-fill"></path>
    </g></g><style>
          .main-fill {fill: #64729C;}
          .main-stroke {stroke: #64729C;}
          .secondary-fill {fill: #eeeeee;}
          .secondary-stroke {stroke: #eeeeee;}

          .main-fill--darken {fill: #46506e;}
          .main-stroke--darken {stroke: #46506e;}
          .secondary-fill--darken {fill: #c8c8c8;}
          .secondary-stroke--darken {stroke: #c8c8c8;}

          .main-fill--darkener {fill: #32394e;}
          .main-stroke--darkener {stroke: #32394e;}
          .secondary-fill--darkener {fill: #aeaeae;}
          .secondary-stroke--darkener {stroke: #aeaeae;}
        </style></svg>