<svg xmlns="http://www.w3.org/2000/svg" width="70" height="70" viewBox="0 0 70 70" style="width: 100%; height: 100%;"><desc>Made with illustrio</desc>
  
<g class="base"><g fill="none" fill-rule="evenodd" stroke="none" class="main-fill">
    
    
  </g><g fill="none" transform="translate(24.182 18.455)" stroke="none" class="main-fill">
      <path d="M10.8181818,7.63636364 C9.06372727,7.63636364 7.63636364,9.06372727 7.63636364,10.8181818 C7.63636364,12.5726364 9.06372727,14 10.8181818,14 C12.5726364,14 14,12.5726364 14,10.8181818 C14,9.06372727 12.5726364,7.63636364 10.8181818,7.63636364 L10.8181818,7.63636364 Z" fill="none" stroke="none" class="main-fill"></path>
      <path d="M20.5990909,9.22281818 C20.0588182,8.81172727 19.8150909,7.90109091 20.0772727,7.27490909 C20.3324545,6.66336364 20.3076364,6.01427273 20.0079091,5.49436364 C19.7075455,4.97509091 19.159,4.62827273 18.501,4.54427273 C17.8270909,4.45772727 17.1614545,3.79145455 17.0749091,3.11818182 C16.9419091,2.086 16.1674545,1.365 15.1906364,1.365 C14.9093636,1.365 14.6236364,1.42418182 14.3442727,1.54127273 C13.7378182,1.79581818 12.7928182,1.54 12.3957273,1.01945455 C11.9929091,0.491272727 11.4182727,0.189 10.8181818,0.189 C10.2187273,0.189 9.64345455,0.491272727 9.24127273,1.01881818 C8.84609091,1.53681818 7.89854545,1.79327273 7.29336364,1.54063636 C7.01336364,1.42354545 6.72827273,1.36436364 6.44636364,1.36436364 C5.46954545,1.36436364 4.69445455,2.08536364 4.56209091,3.11754545 C4.47554545,3.79081818 3.80927273,4.45709091 3.136,4.54363636 C2.478,4.62763636 1.92881818,4.97445455 1.62909091,5.49372727 C1.32872727,6.013 1.30327273,6.66209091 1.55909091,7.27427273 C1.82127273,7.90045455 1.57690909,8.81109091 1.03727273,9.22281818 C0.509727273,9.625 0.207454545,10.1996364 0.207454545,10.7997273 C0.207454545,11.3998182 0.509727273,11.9744545 1.03727273,12.3766364 C1.57690909,12.7877273 1.82127273,13.699 1.55909091,14.3251818 C1.30327273,14.9373636 1.32872727,15.5858182 1.62909091,16.1057273 C1.92881818,16.625 2.478,16.9718182 3.136,17.0558182 C3.80927273,17.1423636 4.47554545,17.8086364 4.56209091,18.4825455 C4.69063636,19.4848182 5.42627273,20.188 6.36363636,20.2280909 L6.36363636,31.8181818 C6.36363636,32.0752727 6.51890909,32.3081818 6.75627273,32.4061818 C6.99427273,32.5054545 7.26790909,32.4500909 7.44990909,32.2680909 L10.8181818,28.8998182 L14.1864545,32.2680909 C14.308,32.3896364 14.4709091,32.4545455 14.6363636,32.4545455 C14.7184545,32.4545455 14.8011818,32.4392727 14.8800909,32.4061818 C15.1180909,32.3081818 15.2727273,32.0752727 15.2727273,31.8181818 L15.2727273,20.2274545 C16.2094545,20.1873636 16.9450909,19.4841818 17.0742727,18.4819091 C17.1608182,17.808 17.8270909,17.1417273 18.5003636,17.0551818 C19.1583636,16.9711818 19.7075455,16.6243636 20.0072727,16.1050909 C20.3076364,15.5858182 20.3324545,14.9367273 20.0766364,14.3245455 C19.8144545,13.6983636 20.0588182,12.7877273 20.5984545,12.376 C21.1253636,11.9738182 21.4282727,11.3991818 21.4282727,10.7990909 C21.4282727,10.199 21.1266364,9.625 20.5990909,9.22281818 L20.5990909,9.22281818 Z M10.8181818,15.2727273 C8.36181818,15.2727273 6.36363636,13.2745455 6.36363636,10.8181818 C6.36363636,8.36181818 8.36181818,6.36363636 10.8181818,6.36363636 C13.2739091,6.36363636 15.2727273,8.36181818 15.2727273,10.8181818 C15.2727273,13.2745455 13.2739091,15.2727273 10.8181818,15.2727273 L10.8181818,15.2727273 Z" fill="none" stroke="none" class="main-fill"></path>
    </g></g><style>
          .main-fill {fill: #64729C;}
          .main-stroke {stroke: #64729C;}
          .secondary-fill {fill: #eeeeee;}
          .secondary-stroke {stroke: #eeeeee;}

          .main-fill--darken {fill: #46506e;}
          .main-stroke--darken {stroke: #46506e;}
          .secondary-fill--darken {fill: #c8c8c8;}
          .secondary-stroke--darken {stroke: #c8c8c8;}

          .main-fill--darkener {fill: #32394e;}
          .main-stroke--darkener {stroke: #32394e;}
          .secondary-fill--darkener {fill: #aeaeae;}
          .secondary-stroke--darkener {stroke: #aeaeae;}
        </style></svg>