<svg xmlns="http://www.w3.org/2000/svg" width="70" height="70" viewBox="0 0 70 70" style="width: 100%; height: 100%;"><desc>Made with illustrio</desc>
  
<g class="base"><g fill="none" fill-rule="evenodd" stroke="none" class="main-fill">
    
    
  </g><g fill="none" transform="translate(18.455 22.91)" stroke="none" class="main-fill">
      <path d="M24.5731818,14.1552727 L15.9090909,17.7653636 L3.42681818,12.5643636 C3.10163636,12.4281818 2.72936364,12.5828182 2.59445455,12.9067273 C2.45954545,13.2312727 2.61227273,13.6041818 2.93681818,13.7390909 L15.6640909,19.0419091 C15.7423636,19.075 15.8257273,19.0909091 15.9090909,19.0909091 C15.9924545,19.0909091 16.0758182,19.075 16.1540909,19.0419091 L25.0631818,15.33 C25.3877273,15.1950909 25.5410909,14.8221818 25.4055455,14.4976364 C25.27,14.1730909 24.8970909,14.0197273 24.5731818,14.1552727 L24.5731818,14.1552727 Z" fill="none" stroke="none" class="main-fill"></path>
      <path d="M29.2727273,18.3043636 L29.2727273,8.48463636 L31.4268182,7.58736364 C31.6635455,7.48872727 31.8181818,7.25709091 31.8181818,7 C31.8181818,6.74290909 31.6635455,6.51127273 31.4268182,6.41263636 L16.1540909,0.049 C15.9975455,-0.0165454545 15.8212727,-0.0165454545 15.6640909,0.049 L0.391363636,6.41263636 C0.154636364,6.51127273 1.77635684e-15,6.74290909 1.77635684e-15,7 C1.77635684e-15,7.25709091 0.154636364,7.48872727 0.391363636,7.58736364 L15.6640909,13.951 C15.7423636,13.9840909 15.8257273,14 15.9090909,14 C15.9924545,14 16.0758182,13.9840909 16.1540909,13.951 L28,9.01536364 L28,18.3043636 L25.5213636,23.261 C25.4227273,23.4582727 25.4329091,23.6924545 25.5493636,23.8801818 C25.6658182,24.0679091 25.8700909,24.1818182 26.0909091,24.1818182 L31.1818182,24.1818182 C31.4026364,24.1818182 31.6069091,24.0672727 31.7233636,23.8795455 C31.8398182,23.6918182 31.85,23.4576364 31.7513636,23.2603636 L29.2727273,18.3043636 L29.2727273,18.3043636 Z" fill="none" stroke="none" class="main-fill"></path>
    </g></g><style>
          .main-fill {fill: #64729C;}
          .main-stroke {stroke: #64729C;}
          .secondary-fill {fill: #eeeeee;}
          .secondary-stroke {stroke: #eeeeee;}

          .main-fill--darken {fill: #46506e;}
          .main-stroke--darken {stroke: #46506e;}
          .secondary-fill--darken {fill: #c8c8c8;}
          .secondary-stroke--darken {stroke: #c8c8c8;}

          .main-fill--darkener {fill: #32394e;}
          .main-stroke--darkener {stroke: #32394e;}
          .secondary-fill--darkener {fill: #aeaeae;}
          .secondary-stroke--darkener {stroke: #aeaeae;}
        </style></svg>